#N canvas 200 50 536 607 10;
#X obj 245 375 outlet~;
#X obj 245 189 inlet~;
#X text 245 160 AUDIO;
#X obj 245 220 *~ 5;
#X obj 245 313 hip~ 200;
#X obj 245 344 hip~ 200;
#X obj 245 251 lop~ 400;
#X obj 245 282 lop~ 400;
#X connect 1 0 3 0;
#X connect 3 0 6 0;
#X connect 4 0 5 0;
#X connect 5 0 0 0;
#X connect 6 0 7 0;
#X connect 7 0 4 0;
