#N canvas 314 232 1165 607 10;
#X obj 389 461 outlet~;
#X obj 464 105 inlet;
#X obj 535 105 inlet;
#X obj 322 105 inlet;
#X obj 392 105 inlet;
#X text 322 82 ATTACK;
#X text 392 82 DECAY;
#X text 464 82 SUSTAIN;
#X text 535 82 RELEASE;
#X obj 815 105 inlet;
#X obj 903 105 inlet;
#X obj 665 105 inlet;
#X obj 740 105 inlet;
#X text 389 485 VCA ENVELOPE;
#X obj 197 105 inlet;
#X obj 390 256 adsr 1 0 0 100 0;
#X obj 995 105 inlet;
#X text 995 82 SCALE;
#X obj 800 382 *~;
#X obj 903 130 / 100;
#X obj 665 379 *~;
#X obj 815 130 / 100;
#X obj 524 380 *~;
#X obj 740 130 / 100;
#X text 665 82 VCA INT;
#X text 740 82 VCF INT;
#X text 815 82 VCO 1 INT;
#X text 903 82 VCO 2 INT;
#X obj 197 198 / 127;
#X msg 197 227 \$1 10;
#X obj 197 256 line~;
#X obj 389 380 fade;
#X obj 524 461 outlet~;
#X obj 665 461 outlet~;
#X obj 800 461 outlet~;
#X text 524 485 VCF ENVELOPE;
#X text 665 485 VCO 1 ENVELOPE;
#X text 800 485 VCO 2 ENVELOPE;
#X obj 116 104 inlet;
#X text 116 81 VELOCITY ON;
#X text 197 82 VELOCITY ON/OFF;
#X obj 116 256 / 127;
#X obj 389 418 *~;
#X obj 740 155 lop~ 5;
#X obj 815 155 lop~ 5;
#X obj 903 155 lop~ 5;
#X obj 815 272 *~;
#X obj 903 272 *~;
#X obj 995 155 lop~ 5;
#X connect 1 0 15 4;
#X connect 2 0 15 5;
#X connect 3 0 15 2;
#X connect 4 0 15 3;
#X connect 9 0 21 0;
#X connect 10 0 19 0;
#X connect 11 0 31 1;
#X connect 12 0 23 0;
#X connect 14 0 15 0;
#X connect 14 0 28 0;
#X connect 15 0 31 0;
#X connect 15 0 22 0;
#X connect 15 0 20 0;
#X connect 15 0 18 0;
#X connect 16 0 48 0;
#X connect 18 0 34 0;
#X connect 19 0 45 0;
#X connect 20 0 33 0;
#X connect 21 0 44 0;
#X connect 22 0 32 0;
#X connect 23 0 43 0;
#X connect 28 0 29 0;
#X connect 29 0 30 0;
#X connect 30 0 31 2;
#X connect 31 0 42 0;
#X connect 38 0 41 0;
#X connect 41 0 42 1;
#X connect 42 0 0 0;
#X connect 43 0 22 1;
#X connect 44 0 46 0;
#X connect 45 0 47 0;
#X connect 46 0 20 1;
#X connect 47 0 18 1;
#X connect 48 0 47 1;
#X connect 48 0 46 1;
