#N canvas 200 50 731 607 10;
#X obj 218 152 inlet~;
#X obj 328 411 outlet~;
#X obj 321 152 inlet;
#X obj 510 152 inlet~;
#X text 218 126 SIGNAL 1;
#X text 510 126 SIGNAL 2;
#X obj 411 216 / 100;
#X obj 378 244 -;
#X msg 378 216 1;
#X obj 378 272 lop~ 5;
#X text 321 126 CONTROL 0-100;
#X obj 284 344 *~;
#X obj 321 216 / 100;
#X obj 321 244 lop~ 5;
#X obj 412 344 *~;
#X connect 0 0 11 0;
#X connect 2 0 6 0;
#X connect 2 0 8 0;
#X connect 2 0 12 0;
#X connect 3 0 14 0;
#X connect 6 0 7 1;
#X connect 7 0 9 0;
#X connect 8 0 7 0;
#X connect 9 0 14 1;
#X connect 11 0 1 0;
#X connect 12 0 13 0;
#X connect 13 0 11 1;
#X connect 14 0 1 0;
