#N canvas 200 50 1078 820 10;
#X obj 391 615 outlet~;
#X obj 429 184 inlet;
#X obj 374 238 == 0;
#X obj 429 238 == 1;
#X obj 482 238 == 2;
#X obj 535 238 == 3;
#X obj 403 358 square;
#X text 429 157 WAVE;
#X obj 328 358 triangle;
#X obj 272 358 saw, f 5;
#X obj 206 184 inlet;
#X text 206 157 RATE;
#X obj 206 238 lop~ 5;
#X obj 206 211 sig~;
#X obj 616 184 inlet;
#X obj 684 184 inlet;
#X obj 757 184 inlet;
#X obj 616 332 / 100;
#X obj 616 358 lop~ 5;
#X obj 391 583 *~;
#X obj 328 422 *~ 1;
#X obj 684 332 / 100;
#X obj 684 358 lop~ 5;
#X obj 456 583 *~;
#X obj 757 332 / 100;
#X obj 757 358 lop~ 5;
#X obj 533 583 *~;
#X obj 456 615 outlet~;
#X obj 533 615 outlet~;
#X obj 831 184 inlet;
#X text 831 157 SCALE;
#X obj 684 436 *~;
#X obj 758 436 *~;
#X obj 831 358 lop~ 5;
#X obj 328 504 *~ 0.5;
#X obj 328 535 +~ 0.5;
#X text 616 157 VCF INT;
#X text 684 157 VCO 1 INT;
#X text 757 157 VCO 2 INT;
#X obj 466 358 cosine;
#X msg 285 238 0;
#X obj 285 211 loadbang;
#X connect 1 0 2 0;
#X connect 1 0 3 0;
#X connect 1 0 4 0;
#X connect 1 0 5 0;
#X connect 2 0 9 2;
#X connect 3 0 8 2;
#X connect 4 0 6 2;
#X connect 5 0 39 2;
#X connect 6 0 20 0;
#X connect 8 0 20 0;
#X connect 9 0 20 0;
#X connect 10 0 13 0;
#X connect 12 0 9 0;
#X connect 12 0 8 0;
#X connect 12 0 6 0;
#X connect 12 0 39 0;
#X connect 13 0 12 0;
#X connect 14 0 17 0;
#X connect 15 0 21 0;
#X connect 16 0 24 0;
#X connect 17 0 18 0;
#X connect 18 0 19 1;
#X connect 19 0 0 0;
#X connect 20 0 23 0;
#X connect 20 0 26 0;
#X connect 20 0 34 0;
#X connect 21 0 22 0;
#X connect 22 0 31 0;
#X connect 23 0 27 0;
#X connect 24 0 25 0;
#X connect 25 0 32 0;
#X connect 26 0 28 0;
#X connect 29 0 33 0;
#X connect 31 0 23 1;
#X connect 32 0 26 1;
#X connect 33 0 32 1;
#X connect 33 0 31 1;
#X connect 34 0 35 0;
#X connect 35 0 19 0;
#X connect 39 0 20 0;
#X connect 40 0 9 1;
#X connect 40 0 8 1;
#X connect 40 0 6 1;
#X connect 40 0 39 1;
#X connect 41 0 40 0;
