#N canvas 200 50 1078 820 10;
#X obj 424 689 outlet~;
#X obj 483 137 inlet;
#X obj 428 191 == 0;
#X obj 483 191 == 1;
#X obj 536 191 == 2;
#X obj 428 245 line~;
#X obj 483 245 line~;
#X obj 536 245 line~;
#X obj 589 245 line~;
#X obj 589 191 == 3;
#X obj 317 245 osc~;
#X obj 271 406 *~;
#X obj 328 406 *~;
#X obj 385 406 *~;
#X obj 443 406 *~;
#X obj 257 245 square;
#X text 483 110 WAVE;
#X obj 187 245 triangle;
#X msg 428 218 \$1;
#X msg 483 218 \$1;
#X msg 536 218 \$1;
#X msg 589 218 \$1;
#X obj 145 245 saw;
#X obj 187 137 inlet;
#X text 187 110 RATE;
#X obj 187 191 lop~ 5;
#X obj 187 164 sig~;
#X obj 649 137 inlet;
#X obj 717 137 inlet;
#X obj 790 137 inlet;
#X obj 649 406 / 100;
#X obj 649 432 lop~ 5;
#X obj 424 657 *~;
#X obj 361 496 *~ 1;
#X obj 717 406 / 100;
#X obj 717 432 lop~ 5;
#X obj 489 657 *~;
#X obj 790 406 / 100;
#X obj 790 432 lop~ 5;
#X obj 566 657 *~;
#X obj 489 689 outlet~;
#X obj 566 689 outlet~;
#X obj 879 137 inlet;
#X text 879 110 SCALE;
#X obj 717 510 *~;
#X obj 791 510 *~;
#X obj 879 432 lop~ 5;
#X obj 361 578 *~ 0.5;
#X obj 361 609 +~ 0.5;
#X text 649 110 VCF INT;
#X text 717 110 VCO 1 INT;
#X text 790 110 VCO 2 INT;
#X connect 1 0 2 0;
#X connect 1 0 3 0;
#X connect 1 0 4 0;
#X connect 1 0 9 0;
#X connect 2 0 18 0;
#X connect 3 0 19 0;
#X connect 4 0 20 0;
#X connect 5 0 11 1;
#X connect 6 0 12 1;
#X connect 7 0 13 1;
#X connect 8 0 14 1;
#X connect 9 0 21 0;
#X connect 10 0 14 0;
#X connect 11 0 33 0;
#X connect 12 0 33 0;
#X connect 13 0 33 0;
#X connect 14 0 33 0;
#X connect 15 0 13 0;
#X connect 17 0 12 0;
#X connect 18 0 5 0;
#X connect 19 0 6 0;
#X connect 20 0 7 0;
#X connect 21 0 8 0;
#X connect 22 0 11 0;
#X connect 23 0 26 0;
#X connect 25 0 22 0;
#X connect 25 0 17 0;
#X connect 25 0 15 0;
#X connect 25 0 10 0;
#X connect 26 0 25 0;
#X connect 27 0 30 0;
#X connect 28 0 34 0;
#X connect 29 0 37 0;
#X connect 30 0 31 0;
#X connect 31 0 32 1;
#X connect 32 0 0 0;
#X connect 33 0 36 0;
#X connect 33 0 39 0;
#X connect 33 0 47 0;
#X connect 34 0 35 0;
#X connect 35 0 44 0;
#X connect 36 0 40 0;
#X connect 37 0 38 0;
#X connect 38 0 45 0;
#X connect 39 0 41 0;
#X connect 42 0 46 0;
#X connect 44 0 36 1;
#X connect 45 0 39 1;
#X connect 46 0 45 1;
#X connect 46 0 44 1;
#X connect 47 0 48 0;
#X connect 48 0 32 0;
