#N canvas 438 460 882 543 10;
#X obj 470 444 throw~ outL;
#X obj 554 444 throw~ outR;
#X obj 470 405 *~ 0.3;
#X obj 470 322 voice;
#X obj 470 207 pack 0 0 0;
#X obj 470 129 unpack 0 0;
#X obj 470 90 r notes;
#X obj 628 90 r notes_seq;
#X obj 534 90 r zero_notes;
#X obj 171 90 sequencer2;
#X obj 522 322 voice;
#X obj 574 322 voice;
#X obj 626 322 voice;
#N canvas 680 234 1529 830 rack 0;
#X obj 219 453 r seq-display;
#X obj 213 538 list;
#X obj 219 478 t b a;
#X obj 214 507 f;
#X obj 213 566 route 1 2 3 4;
#X obj 234 603 s screenLine5;
#X text 123 400 put the sequencer messages;
#X text 124 415 on all pages except menu;
#X obj 292 186 r knob1Raw;
#X msg 292 222 knob1Raw \$1;
#X obj 298 60 hsl 128 15 0 1024 0 0 knob1Raw empty knob1 -2 -8 0 10
-262144 -1 -1 0 1;
#X obj 296 92 hsl 128 15 0 1024 0 0 knob3Raw empty knob3 -2 -8 0 10
-262144 -1 -1 0 1;
#X obj 451 59 hsl 128 15 0 1024 0 0 knob2Raw empty knob2 -2 -8 0 10
-262144 -1 -1 0 1;
#X obj 451 93 hsl 128 15 0 1024 0 0 knob4Raw empty knob4 -2 -8 0 10
-262144 -1 -1 0 1;
#X obj 374 185 r knob2Raw;
#X obj 458 184 r knob3Raw;
#X obj 547 184 r knob4Raw;
#X msg 547 220 knob4Raw \$1;
#X msg 458 220 knob3Raw \$1;
#X msg 374 221 knob2Raw \$1;
#X obj 635 184 r enc;
#X msg 635 220 enc \$1;
#X msg 724 220 encbut \$1;
#X obj 724 184 r encbut;
#X obj 458 458 r seq-display;
#X obj 473 608 s screenLine5;
#X obj 833 183 ctlin;
#X obj 833 221 pack f f;
#X msg 833 244 midiCC \$2 \$1;
#X obj 327 305 KontrolRack 8000 9000;
#X connect 0 0 2 0;
#X connect 1 0 4 0;
#X connect 2 0 3 0;
#X connect 2 1 1 1;
#X connect 3 0 1 0;
#X connect 4 0 5 0;
#X connect 4 1 5 0;
#X connect 4 2 5 0;
#X connect 4 3 5 0;
#X connect 8 0 9 0;
#X connect 9 0 29 0;
#X connect 14 0 19 0;
#X connect 15 0 18 0;
#X connect 16 0 17 0;
#X connect 17 0 29 0;
#X connect 18 0 29 0;
#X connect 19 0 29 0;
#X connect 20 0 21 0;
#X connect 21 0 29 0;
#X connect 22 0 29 0;
#X connect 23 0 22 0;
#X connect 24 0 25 0;
#X connect 26 0 27 0;
#X connect 26 1 27 1;
#X connect 27 0 28 0;
#X connect 28 0 29 0;
#X restore 109 90 pd rack;
#X obj 109 129 loadbang;
#X obj 109 168 t b b;
#X msg 230 207 loadsettings polylogue;
#X obj 109 246 KontrolModule Polylogue polylogue;
#X msg 109 207 loadpreset Init;
#X obj 470 168 poly 6;
#X obj 470 246 route 1 2 3 4 5 6;
#X obj 678 322 voice;
#X obj 730 322 voice;
#X connect 2 0 0 0;
#X connect 2 0 1 0;
#X connect 3 0 2 0;
#X connect 4 0 20 0;
#X connect 5 0 19 0;
#X connect 5 1 19 1;
#X connect 6 0 5 0;
#X connect 7 0 5 0;
#X connect 8 0 5 0;
#X connect 10 0 2 0;
#X connect 11 0 2 0;
#X connect 12 0 2 0;
#X connect 14 0 15 0;
#X connect 15 0 18 0;
#X connect 15 1 16 0;
#X connect 16 0 17 0;
#X connect 18 0 17 0;
#X connect 19 0 4 0;
#X connect 19 1 4 1;
#X connect 19 2 4 2;
#X connect 20 0 3 0;
#X connect 20 1 10 0;
#X connect 20 2 11 0;
#X connect 20 3 12 0;
#X connect 20 4 21 0;
#X connect 20 5 22 0;
#X connect 21 0 2 0;
#X connect 22 0 2 0;
