#N canvas 200 50 982 607 10;
#X obj 449 435 outlet~;
#X obj 238 152 inlet;
#X obj 152 152 inlet~;
#X text 152 126 CHANNEL 1;
#X text 238 126 LEVEL 1;
#X obj 238 195 / 100;
#X obj 238 223 lop~ 5;
#X obj 152 302 *~;
#X obj 426 152 inlet;
#X obj 340 152 inlet~;
#X obj 426 195 / 100;
#X obj 426 223 lop~ 5;
#X obj 340 302 *~;
#X obj 616 152 inlet;
#X obj 530 152 inlet~;
#X obj 616 195 / 100;
#X obj 616 223 lop~ 5;
#X obj 530 302 *~;
#X obj 804 152 inlet;
#X obj 718 152 inlet~;
#X obj 804 195 / 100;
#X obj 804 223 lop~ 5;
#X obj 718 302 *~;
#X text 340 126 CHANNEL 2;
#X text 426 126 LEVEL 2;
#X text 530 126 CHANNEL 3;
#X text 616 126 LEVEL 3;
#X text 718 126 CHANNEL 4;
#X text 804 126 LEVEL 4;
#X connect 1 0 5 0;
#X connect 2 0 7 0;
#X connect 5 0 6 0;
#X connect 6 0 7 1;
#X connect 7 0 0 0;
#X connect 8 0 10 0;
#X connect 9 0 12 0;
#X connect 10 0 11 0;
#X connect 11 0 12 1;
#X connect 12 0 0 0;
#X connect 13 0 15 0;
#X connect 14 0 17 0;
#X connect 15 0 16 0;
#X connect 16 0 17 1;
#X connect 17 0 0 0;
#X connect 18 0 20 0;
#X connect 19 0 22 0;
#X connect 20 0 21 0;
#X connect 21 0 22 1;
#X connect 22 0 0 0;
