#N canvas 200 50 536 607 10;
#X obj 267 473 outlet~;
#X obj 142 131 inlet~;
#X obj 268 176 / 100;
#X obj 268 311 lop~;
#X obj 268 284 + 0.1;
#X obj 268 230 abs;
#X obj 268 257 * 10;
#X obj 268 203 - 1;
#X obj 316 311 line~;
#X obj 364 311 line~;
#X msg 316 284 \$1;
#X msg 364 284 \$1;
#X obj 142 392 *~;
#X obj 268 392 *~;
#X obj 316 257 == 0;
#X obj 364 257 > 0;
#X obj 316 131 inlet;
#X text 142 106 PITCH;
#X text 316 106 PORTAMENTO;
#X connect 1 0 3 0;
#X connect 1 0 12 0;
#X connect 2 0 7 0;
#X connect 3 0 13 0;
#X connect 4 0 3 1;
#X connect 5 0 6 0;
#X connect 6 0 4 0;
#X connect 7 0 5 0;
#X connect 8 0 12 1;
#X connect 9 0 13 1;
#X connect 10 0 8 0;
#X connect 11 0 9 0;
#X connect 12 0 0 0;
#X connect 13 0 0 0;
#X connect 14 0 10 0;
#X connect 15 0 11 0;
#X connect 16 0 2 0;
#X connect 16 0 14 0;
#X connect 16 0 15 0;
