#N canvas 86 404 536 607 10;
#X obj 199 562 outlet~;
#X obj 296 58 inlet;
#X text 296 30 SHAPE;
#X obj 29 562 tabwrite~ \$0sawtooth;
#N canvas 0 50 450 250 (subpatch) 0;
#X array \$0sawtooth 300 float 0;
#X coords 0 1 299 -1 200 140 1 0 0;
#X restore 309 438 graph;
#X obj 146 208 -~ 1;
#X obj 214 342 -~ 0.5;
#X obj 214 402 -~;
#X obj 199 463 -~;
#X obj 199 493 *~ 2;
#X obj 214 432 +~ 1;
#X obj 229 372 wrap~;
#X obj 146 58 inlet~;
#X obj 146 118 -~ 0.5;
#X obj 401 117 switch~;
#X obj 401 88 tgl 15 0 empty empty empty 17 7 0 10 -262144 -1 -1 1
1;
#X obj 401 58 inlet;
#X text 401 30 SWITCH;
#X obj 29 463 tgl 15 0 empty empty empty 17 7 0 10 -262144 -1 -1 1
1;
#X obj 29 492 metro 100;
#X obj 146 148 abs~;
#X text 146 30 PITCH;
#X obj 146 88 phasor~;
#X obj 146 178 *~ 4;
#X obj 296 118 / 100;
#X obj 296 208 lop~ 5;
#X obj 296 148 * 0.5;
#X obj 296 178 + 0.5;
#X obj 198 308 *~;
#X obj 57 208 *~ 2;
#X obj 235 208 lop~ 5;
#X obj 235 148 * 2;
#X obj 235 178 - 1;
#X obj 57 238 expr~ if ($v1 > $v3 \, $v1 \, $v2);
#X connect 1 0 24 0;
#X connect 5 0 33 1;
#X connect 6 0 7 0;
#X connect 6 0 11 0;
#X connect 7 0 10 0;
#X connect 8 0 9 0;
#X connect 9 0 0 0;
#X connect 9 0 3 0;
#X connect 10 0 8 1;
#X connect 11 0 7 1;
#X connect 12 0 22 0;
#X connect 13 0 20 0;
#X connect 13 0 29 0;
#X connect 15 0 14 0;
#X connect 16 0 15 0;
#X connect 18 0 19 0;
#X connect 19 0 3 0;
#X connect 20 0 23 0;
#X connect 22 0 13 0;
#X connect 23 0 5 0;
#X connect 24 0 26 0;
#X connect 24 0 31 0;
#X connect 25 0 28 1;
#X connect 26 0 27 0;
#X connect 27 0 25 0;
#X connect 28 0 8 0;
#X connect 28 0 6 0;
#X connect 29 0 33 0;
#X connect 30 0 33 2;
#X connect 31 0 32 0;
#X connect 32 0 30 0;
#X connect 33 0 28 0;
