#N canvas 127 405 536 607 10;
#X obj 193 161 inlet~;
#X obj 193 461 outlet~;
#X obj 280 161 inlet;
#X obj 280 191 / 100;
#X obj 280 281 lop~ 5;
#X obj 193 431 -~ 1;
#X text 280 133 SHAPE;
#X obj 280 221 * 0.25;
#X obj 340 221 * 4;
#X obj 340 251 + 4;
#X obj 340 281 lop~ 5;
#X obj 193 341 -~;
#X obj 193 401 *~;
#X obj 193 371 abs~;
#X obj 411 220 switch~;
#X obj 411 191 tgl 15 0 empty empty empty 17 7 0 10 -262144 -1 -1 0
1;
#X obj 411 161 inlet;
#X text 411 133 SWITCH;
#N canvas 0 50 450 250 (subpatch) 0;
#X array \$0triangle 300 float 0;
#X coords 0 1 299 -1 200 140 1 0 0;
#X restore 310 438 graph;
#X obj 29 438 tgl 15 0 empty empty empty 17 7 0 10 -262144 -1 -1 0
1;
#X obj 29 467 metro 100;
#X obj 29 562 tabwrite~ \$0triangle;
#X obj 193 311 abs~;
#X obj 193 281 -~ 0.5;
#X text 193 133 PITCH;
#X obj 193 251 phasor~;
#X connect 0 0 25 0;
#X connect 2 0 3 0;
#X connect 3 0 8 0;
#X connect 3 0 7 0;
#X connect 4 0 11 1;
#X connect 5 0 1 0;
#X connect 5 0 21 0;
#X connect 7 0 4 0;
#X connect 8 0 9 0;
#X connect 9 0 10 0;
#X connect 10 0 12 1;
#X connect 11 0 13 0;
#X connect 12 0 5 0;
#X connect 13 0 12 0;
#X connect 15 0 14 0;
#X connect 16 0 15 0;
#X connect 19 0 20 0;
#X connect 20 0 21 0;
#X connect 22 0 11 0;
#X connect 23 0 22 0;
#X connect 25 0 23 0;
