#N canvas 200 50 536 607 10;
#X obj 193 154 inlet~;
#X obj 192 431 outlet~;
#X obj 192 281 phasor~;
#X obj 280 154 inlet;
#X obj 320 191 / 100;
#X obj 280 281 lop~ 5;
#X obj 320 221 * 0.5;
#X obj 280 251 -;
#X msg 280 221 0.5;
#X obj 192 311 -~ 0.5;
#X obj 192 341 abs~;
#X obj 192 371 *~ 4;
#X obj 192 401 -~ 1;
#X text 193 133 PITCH;
#X text 280 133 SHAPE;
#X connect 0 0 2 0;
#X connect 2 0 9 0;
#X connect 3 0 4 0;
#X connect 3 0 8 0;
#X connect 4 0 6 0;
#X connect 6 0 7 1;
#X connect 7 0 5 0;
#X connect 8 0 7 0;
#X connect 9 0 10 0;
#X connect 10 0 11 0;
#X connect 11 0 12 0;
#X connect 12 0 1 0;
