#N canvas 200 50 624 607 10;
#X obj 215 172 inlet~;
#X obj 145 407 outlet~;
#X obj 358 172 inlet;
#X obj 145 373 bob~;
#X obj 358 206 lop~ 5;
#X obj 215 240 +~;
#X obj 429 239 / 100;
#X obj 429 307 lop~ 5;
#X obj 429 273 * 4.05;
#X obj 215 308 clip~ 100 5000;
#X text 215 140 ENVELOPE;
#X obj 145 172 inlet~;
#X text 145 140 AUDIO;
#X text 358 140 CUTOFF;
#X obj 429 172 inlet;
#X text 429 140 RESONANCE;
#X obj 285 172 inlet~;
#X text 285 140 LFO;
#X obj 215 206 *~ 5000;
#X obj 285 206 *~ 5000;
#X obj 215 274 +~;
#X connect 0 0 18 0;
#X connect 2 0 4 0;
#X connect 3 0 1 0;
#X connect 4 0 20 1;
#X connect 5 0 20 0;
#X connect 6 0 8 0;
#X connect 7 0 3 2;
#X connect 8 0 7 0;
#X connect 9 0 3 1;
#X connect 11 0 3 0;
#X connect 14 0 6 0;
#X connect 16 0 19 0;
#X connect 18 0 5 0;
#X connect 19 0 5 1;
#X connect 20 0 9 0;
