#N canvas 944 190 876 820 10;
#X obj 178 239 inlet~;
#X obj 417 576 outlet~;
#X obj 568 239 inlet;
#X text 178 214 PITCH;
#X obj 460 300 == 0;
#X obj 515 300 == 1;
#X obj 568 300 == 2;
#X obj 621 300 == 3;
#X obj 674 300 == 4;
#X obj 417 445 square;
#X text 568 214 WAVE;
#X obj 366 239 inlet;
#X text 366 214 SHAPE;
#X obj 344 445 triangle;
#X obj 290 445 saw, f 5;
#X obj 235 239 inlet;
#X text 235 214 PORTAMENTO;
#X obj 178 300 portamento;
#X obj 477 445 cosine;
#X obj 538 445 noise;
#X connect 0 0 17 0;
#X connect 2 0 4 0;
#X connect 2 0 5 0;
#X connect 2 0 6 0;
#X connect 2 0 7 0;
#X connect 2 0 8 0;
#X connect 4 0 14 2;
#X connect 5 0 13 2;
#X connect 6 0 9 2;
#X connect 7 0 18 2;
#X connect 8 0 19 0;
#X connect 9 0 1 0;
#X connect 11 0 9 1;
#X connect 11 0 13 1;
#X connect 11 0 14 1;
#X connect 11 0 18 1;
#X connect 13 0 1 0;
#X connect 14 0 1 0;
#X connect 15 0 17 1;
#X connect 17 0 18 0;
#X connect 17 0 9 0;
#X connect 17 0 13 0;
#X connect 17 0 14 0;
#X connect 18 0 1 0;
#X connect 19 0 1 0;
