#N canvas 200 50 876 820 10;
#X obj 183 211 inlet~;
#X obj 422 648 outlet~;
#X obj 573 211 inlet;
#X text 183 186 PITCH;
#X obj 465 281 == 0;
#X obj 520 281 == 1;
#X obj 573 281 == 2;
#X obj 465 335 line~;
#X obj 520 335 line~;
#X obj 573 335 line~;
#X obj 626 335 line~;
#X obj 626 281 == 3;
#X obj 403 335 noise~;
#X obj 679 335 line~;
#X obj 679 281 == 4;
#X obj 537 496 *~;
#X obj 354 335 osc~;
#X obj 308 496 *~;
#X obj 365 496 *~;
#X obj 422 496 *~;
#X obj 480 496 *~;
#X obj 294 335 square;
#X text 573 186 WAVE;
#X obj 327 211 inlet;
#X text 327 186 SHAPE;
#X obj 224 335 triangle;
#X msg 465 308 \$1;
#X msg 520 308 \$1;
#X msg 573 308 \$1;
#X msg 626 308 \$1;
#X msg 679 308 \$1;
#X obj 182 335 saw;
#X obj 183 281 phasor~;
#X obj 240 211 inlet;
#X text 240 186 PORTAMENTO;
#X obj 183 238 portamento;
#X connect 0 0 35 0;
#X connect 2 0 4 0;
#X connect 2 0 5 0;
#X connect 2 0 6 0;
#X connect 2 0 11 0;
#X connect 2 0 14 0;
#X connect 4 0 26 0;
#X connect 5 0 27 0;
#X connect 6 0 28 0;
#X connect 7 0 17 1;
#X connect 8 0 18 1;
#X connect 9 0 19 1;
#X connect 10 0 20 1;
#X connect 11 0 29 0;
#X connect 12 0 15 0;
#X connect 13 0 15 1;
#X connect 14 0 30 0;
#X connect 15 0 1 0;
#X connect 16 0 20 0;
#X connect 17 0 1 0;
#X connect 18 0 1 0;
#X connect 19 0 1 0;
#X connect 20 0 1 0;
#X connect 21 0 19 0;
#X connect 23 0 21 1;
#X connect 23 0 25 1;
#X connect 23 0 31 1;
#X connect 25 0 18 0;
#X connect 26 0 7 0;
#X connect 27 0 8 0;
#X connect 28 0 9 0;
#X connect 29 0 10 0;
#X connect 30 0 13 0;
#X connect 31 0 17 0;
#X connect 32 0 31 0;
#X connect 32 0 25 0;
#X connect 32 0 21 0;
#X connect 33 0 35 1;
#X connect 35 0 32 0;
#X connect 35 0 16 0;
