#N canvas 899 155 876 820 10;
#X obj 264 542 outlet~;
#X obj 632 257 inlet;
#X text 632 230 WAVE;
#X obj 264 257 inlet;
#X obj 204 257 inlet;
#X obj 574 257 inlet;
#X text 204 230 NOTE;
#X text 264 230 TRANSPOSE;
#X text 574 230 SHAPE;
#X obj 264 382 mtof;
#X obj 264 410 sig~;
#X obj 264 286 * 12;
#X obj 264 315 +;
#X obj 265 489 vco, f 6;
#X obj 265 461 +~;
#X obj 371 257 inlet~;
#X obj 434 542 outlet;
#X obj 434 257 inlet~;
#X text 434 230 LFO;
#X text 371 230 ENVELOPE;
#X obj 502 257 inlet;
#X text 502 230 PORTAMENTO;
#X connect 1 0 13 3;
#X connect 3 0 11 0;
#X connect 4 0 12 0;
#X connect 5 0 13 2;
#X connect 9 0 10 0;
#X connect 10 0 14 0;
#X connect 11 0 12 1;
#X connect 12 0 9 0;
#X connect 12 0 16 0;
#X connect 13 0 0 0;
#X connect 14 0 13 0;
#X connect 15 0 14 1;
#X connect 17 0 14 1;
#X connect 20 0 13 1;
