#N canvas 200 50 876 820 10;
#X obj 423 552 outlet~;
#X obj 637 248 inlet;
#X text 637 221 WAVE;
#X obj 422 248 inlet;
#X obj 586 248 inlet;
#X text 586 221 SHAPE;
#X obj 422 473 *~;
#X obj 422 333 + 100;
#X obj 422 361 / 200;
#X obj 422 417 + 0.333;
#X obj 422 389 * 1.333;
#X obj 422 445 lop~ 5;
#X obj 423 520 vco, f 6;
#X text 422 221 DETUNE;
#X obj 221 248 inlet;
#X text 221 221 OFFSET;
#X obj 291 248 inlet~;
#X obj 276 416 +~;
#X text 168 221 NOTE;
#X obj 221 335 mtof;
#X obj 221 363 sig~;
#X obj 221 279 * 12;
#X obj 221 307 +;
#X obj 168 248 inlet;
#X obj 348 248 inlet~;
#X text 348 221 LFO;
#X text 291 221 ENVELOPE;
#X obj 516 248 inlet;
#X text 516 221 PORTAMENTO;
#X connect 1 0 12 3;
#X connect 3 0 7 0;
#X connect 4 0 12 2;
#X connect 6 0 12 0;
#X connect 7 0 8 0;
#X connect 8 0 10 0;
#X connect 9 0 11 0;
#X connect 10 0 9 0;
#X connect 11 0 6 1;
#X connect 12 0 0 0;
#X connect 14 0 21 0;
#X connect 16 0 17 1;
#X connect 17 0 6 0;
#X connect 19 0 20 0;
#X connect 20 0 17 0;
#X connect 21 0 22 1;
#X connect 22 0 19 0;
#X connect 23 0 22 0;
#X connect 24 0 17 1;
#X connect 27 0 12 1;
