#N canvas 221 97 1128 947 10;
#X obj 253 693 *~;
#X obj 225 269 unpack 0 0;
#X obj 225 108 inlet;
#X obj 305 815 outlet~;
#X obj 153 269 stripnote;
#X obj 433 77 r eg_attack;
#X obj 433 100 r eg_decay;
#X obj 433 123 r eg_sustain;
#X obj 433 146 r eg_release;
#X obj 433 192 r vcf_eg_intensity;
#X obj 390 703 r vcf_cutoff;
#X obj 390 726 r vcf_resonance;
#X obj 626 195 r vco1_transpose;
#X obj 848 394 r vco2_detune;
#X obj 433 238 r vco2_eg_intensity;
#X obj 848 515 r mix_vco1;
#X obj 848 538 r mix_vco2;
#X obj 848 460 r vco2_wave;
#X obj 433 169 r vca_eg_intensity;
#X obj 848 438 r vco2_shape;
#X obj 626 239 r vco1_shape;
#X obj 433 215 r vco1_eg_intensity;
#X obj 306 748 vcf, f 8;
#X obj 848 561 r~ inL;
#X obj 848 584 r~ inR;
#X obj 848 607 r mix_aux;
#X obj 848 653 r mix_drive;
#X obj 390 815 s~ \$0_drive;
#X obj 848 630 r~ \$0_drive;
#X obj 390 791 drive;
#X obj 679 678 mixer, f 18;
#X obj 268 316 eg, f 25;
#X obj 339 471 vco1, f 14;
#X obj 709 485 vco2, f 16;
#X obj 848 372 r vco2_offset;
#X obj 626 261 r vco1_wave;
#X obj 679 316 lfo, f 12;
#X obj 848 146 r lfo_rate;
#X obj 848 192 r vcf_lfo_intensity;
#X obj 848 215 r vco1_lfo_intensity;
#X obj 848 238 r vco2_lfo_intensity;
#X obj 848 169 r lfo_wave;
#X obj 433 261 r cfg_pitch_scale;
#X obj 848 261 r cfg_pitch_scale;
#X obj 626 217 r cfg_portamento;
#X obj 848 416 r cfg_portamento;
#X connect 0 0 22 0;
#X connect 1 1 31 1;
#X connect 2 0 1 0;
#X connect 2 0 4 0;
#X connect 4 0 32 0;
#X connect 4 1 31 0;
#X connect 5 0 31 2;
#X connect 6 0 31 3;
#X connect 7 0 31 4;
#X connect 8 0 31 5;
#X connect 9 0 31 7;
#X connect 10 0 22 3;
#X connect 11 0 22 4;
#X connect 12 0 32 1;
#X connect 13 0 33 4;
#X connect 14 0 31 9;
#X connect 15 0 30 1;
#X connect 16 0 30 3;
#X connect 17 0 33 7;
#X connect 18 0 31 6;
#X connect 19 0 33 6;
#X connect 20 0 32 5;
#X connect 21 0 31 8;
#X connect 22 0 3 0;
#X connect 22 0 29 0;
#X connect 23 0 30 4;
#X connect 24 0 30 4;
#X connect 25 0 30 5;
#X connect 26 0 30 7;
#X connect 28 0 30 6;
#X connect 29 0 27 0;
#X connect 30 0 0 0;
#X connect 31 0 0 1;
#X connect 31 1 22 1;
#X connect 31 2 32 2;
#X connect 31 3 33 2;
#X connect 32 0 30 0;
#X connect 32 1 33 0;
#X connect 33 0 30 2;
#X connect 34 0 33 1;
#X connect 35 0 32 6;
#X connect 36 0 22 2;
#X connect 36 1 32 3;
#X connect 36 2 33 3;
#X connect 37 0 36 0;
#X connect 38 0 36 2;
#X connect 39 0 36 3;
#X connect 40 0 36 4;
#X connect 41 0 36 1;
#X connect 42 0 31 10;
#X connect 43 0 36 5;
#X connect 44 0 32 4;
#X connect 45 0 33 5;
